<svg xmlns="http://www.w3.org/2000/svg" viewBox="0 0 210.93 51.3"><defs><style>.cls-1{isolation:isolate;}</style></defs><g id="Layer_2" data-name="Layer 2"><g id="layer"><g class="cls-1"><g class="cls-1"><path d="M7,.67V16L21.12.67h8.71L13,18.49,30.24,36.73H21L7,21.64V36.73H0V.67Z"/></g><g class="cls-1"><path d="M67.53,36.73H60.11l-3.56-8.81H40.89l-3.55,8.81H30.13L45.32.67h7ZM54.13,21.89,48.72,8.4,43.26,21.89Z"/></g><g class="cls-1"><path d="M69.84,36.73V.67H84.52a10.77,10.77,0,0,1,11,10.77,10.5,10.5,0,0,1-6.59,9.68l9,15.61H90L81.84,22h-5V36.73Zm7-30v9.43h6.6c3.09,0,5.1-2.06,5.1-4.74s-2-4.69-5.1-4.69Z"/></g><g class="cls-1"><path d="M135.63,36.73h-7.42l-3.56-8.81H109l-3.55,8.81H98.23L113.42.67h7Zm-13.4-14.84L116.82,8.4l-5.46,13.49Z"/></g><g class="cls-1"><path d="M140.52,28.8a8.52,8.52,0,0,0,5.87,2.42c3.86,0,6.54-3.09,6.54-7.57V.67h6.95V24.88c0,7.42-5.46,12.62-13.08,12.62a14.8,14.8,0,0,1-10.35-3.71Z"/><path d="M164.78,36.73V.67h6.95V36.73Z"/><path d="M195.27,0a19.39,19.39,0,0,1,15.51,7.78l-5.41,4a12.52,12.52,0,0,0-10-5.41,11.92,11.92,0,0,0-12.26,12.31,12.27,12.27,0,0,0,22.41,7l5.41,4a18.93,18.93,0,0,1-15.5,7.78c-11.34,0-19.37-8.19-19.37-18.75C176.06,8.35,184.14,0,195.27,0Z"/></g><g class="cls-1"><path d="M31.07,51.13H25.78v-8.4H27.4v7h3.67Z"/></g><g class="cls-1"><path d="M35.63,42.58a4.36,4.36,0,1,1-4.48,4.35A4.37,4.37,0,0,1,35.63,42.58Zm0,7.22a2.87,2.87,0,1,0-2.82-2.87A2.79,2.79,0,0,0,35.63,49.8Z"/></g><g class="cls-1"><path d="M45.26,42.58A4.56,4.56,0,0,1,49,44.39l-1.26.92a3,3,0,0,0-2.46-1.26,2.72,2.72,0,0,0-2.72,2.87,2.76,2.76,0,0,0,2.78,2.9,2.3,2.3,0,0,0,2.42-2H44.93V46.48h4.35v4.65H47.72v-1a3.39,3.39,0,0,1-2.56,1.11,4.22,4.22,0,0,1-4.29-4.37A4.27,4.27,0,0,1,45.26,42.58Z"/><path d="M50.46,51.13v-8.4h1.62v8.4Z"/></g><g class="cls-1"><path d="M54.64,48.53a1.6,1.6,0,0,0,1.78,1.4c.93,0,1.41-.44,1.41-1s-.39-.88-1-1l-1.43-.35c-1.5-.39-2.23-1.14-2.23-2.4A2.61,2.61,0,0,1,56,42.59a3,3,0,0,1,3.19,2.69H57.65A1.56,1.56,0,0,0,56,43.93c-.73,0-1.28.39-1.28,1s.38.85,1,1l1.42.37c1.57.41,2.24,1.13,2.24,2.38,0,1.43-1.19,2.52-3,2.52a3.08,3.08,0,0,1-3.33-2.74Z"/></g><g class="cls-1"><path d="M59.71,42.73H66.5v1.42H63.91v7H62.29v-7H59.71Z"/><path d="M67.35,51.13v-8.4H69v8.4Z"/><path d="M71.77,42.73V46.3l3.3-3.57h2l-3.92,4.15,4,4.25H75l-3.26-3.51v3.51H70.15v-8.4Z"/><path d="M83.53,49.86a1.87,1.87,0,0,0,1.85-2V42.73H87v8.4H85.39v-.6A3.24,3.24,0,0,1,80.05,48V42.73h1.62v5.11A1.86,1.86,0,0,0,83.53,49.86Z"/><path d="M88.2,51.13v-8.4H90l4.24,6.18V42.73h1.5v8.4H93.93L89.69,45v6.18Z"/><path d="M100.24,51.13H96.91v-8.4h3.33a4.2,4.2,0,1,1,0,8.4Zm-1.71-7v5.56h1.54a2.78,2.78,0,1,0,0-5.56Z"/><path d="M107.65,42.73h6.79v1.42h-2.59v7h-1.62v-7h-2.58Z"/></g><g class="cls-1"><path d="M115.29,51.13v-8.4h3.42a2.52,2.52,0,0,1,2.56,2.51,2.46,2.46,0,0,1-1.54,2.26l2.09,3.63H120l-1.91-3.43h-1.18v3.43Zm1.62-7v2.19h1.54a1.1,1.1,0,1,0,0-2.19Z"/></g><g class="cls-1"><path d="M130.61,51.13h-1.73l-.82-2.05h-3.65l-.83,2.05H121.9l3.54-8.4h1.63Zm-3.12-3.46-1.26-3.14L125,47.67Z"/><path d="M131.16,51.13v-8.4h1.77l4.25,6.18,0-6.18h1.5v8.4h-1.77L132.64,45v6.18Z"/><path d="M141.23,48.53a1.61,1.61,0,0,0,1.78,1.4c.93,0,1.42-.44,1.42-1s-.4-.88-1-1L142,47.5c-1.5-.39-2.23-1.14-2.23-2.4a2.61,2.61,0,0,1,2.9-2.51,3.05,3.05,0,0,1,3.19,2.69h-1.59a1.55,1.55,0,0,0-1.61-1.35c-.74,0-1.29.39-1.29,1s.39.85,1,1l1.42.37c1.57.41,2.24,1.13,2.24,2.38,0,1.43-1.18,2.52-3,2.52a3.09,3.09,0,0,1-3.34-2.74Z"/></g><g class="cls-1"><path d="M147,42.73h3.57a2.58,2.58,0,1,1,0,5.16h-1.95v3.24H147Zm1.62,1.42v2.36h1.8a1.1,1.1,0,0,0,1.12-1.19,1.09,1.09,0,0,0-1.12-1.17Z"/></g><g class="cls-1"><path d="M158.33,42.58a4.36,4.36,0,1,1-4.48,4.35A4.37,4.37,0,0,1,158.33,42.58Zm0,7.22a2.87,2.87,0,1,0-2.82-2.87A2.79,2.79,0,0,0,158.33,49.8Z"/></g><g class="cls-1"><path d="M163.81,51.13v-8.4h3.42a2.52,2.52,0,0,1,2.56,2.51,2.46,2.46,0,0,1-1.54,2.26l2.09,3.63h-1.82l-1.91-3.43h-1.18v3.43Zm1.62-7v2.19H167a1.1,1.1,0,1,0,0-2.19Z"/></g><g class="cls-1"><path d="M170.25,42.73H177v1.42h-2.59v7h-1.62v-7h-2.58Z"/><path d="M177.89,42.73h5.29v1.42h-3.67v2.07h3.55V47.6h-3.55v2.11h3.67v1.42h-5.29Z"/></g></g></g></g></svg>