<svg id="layer" xmlns="http://www.w3.org/2000/svg" viewBox="0 0 210.93 51.3"><defs><style>.cls-1{isolation:isolate;}.cls-2{fill:#fff;}</style></defs><g class="cls-1"><g class="cls-1"><path class="cls-2" d="M9.53,7.72V23L23.7,7.72h8.7L15.56,25.54,32.81,43.78H23.54l-14-15.09V43.78H2.58V7.72Z" transform="translate(-2.58 -7.05)"/></g><g class="cls-1"><path class="cls-2" d="M70.1,43.78H62.68L59.13,35H43.47l-3.56,8.81H32.7L47.9,7.72h7ZM56.71,28.94,51.3,15.45,45.84,28.94Z" transform="translate(-2.58 -7.05)"/></g><g class="cls-1"><path class="cls-2" d="M72.42,43.78V7.72H87.1a10.77,10.77,0,0,1,11,10.77,10.49,10.49,0,0,1-6.59,9.68l9,15.61H92.61L84.42,29.05h-5V43.78Zm7-30v9.43H86c3.09,0,5.1-2.06,5.1-4.74s-2-4.69-5.1-4.69Z" transform="translate(-2.58 -7.05)"/></g><g class="cls-1"><path class="cls-2" d="M138.2,43.78h-7.42L127.23,35H111.57L108,43.78H100.8L116,7.72h7ZM124.81,28.94,119.4,15.45l-5.46,13.49Z" transform="translate(-2.58 -7.05)"/></g><g class="cls-1"><path class="cls-2" d="M143.09,35.85A8.54,8.54,0,0,0,149,38.27c3.87,0,6.55-3.09,6.55-7.57v-23h7V31.93c0,7.42-5.46,12.62-13.08,12.62A14.83,14.83,0,0,1,139,40.84Z" transform="translate(-2.58 -7.05)"/><path class="cls-2" d="M167.35,43.78V7.72h7V43.78Z" transform="translate(-2.58 -7.05)"/><path class="cls-2" d="M197.85,7.05a19.36,19.36,0,0,1,15.5,7.78l-5.41,4a12.51,12.51,0,0,0-10-5.41A11.92,11.92,0,0,0,185.69,25.7,12,12,0,0,0,198,38.06a12.08,12.08,0,0,0,10.15-5.35l5.41,4A18.94,18.94,0,0,1,198,44.45c-11.33,0-19.37-8.19-19.37-18.75C178.63,15.4,186.72,7.05,197.85,7.05Z" transform="translate(-2.58 -7.05)"/></g><g class="cls-1"><path class="cls-2" d="M33.65,58.18H28.36v-8.4H30v7h3.67Z" transform="translate(-2.58 -7.05)"/></g><g class="cls-1"><path class="cls-2" d="M38.2,49.63A4.36,4.36,0,1,1,33.73,54,4.37,4.37,0,0,1,38.2,49.63Zm0,7.22A2.87,2.87,0,1,0,35.38,54,2.8,2.8,0,0,0,38.2,56.85Z" transform="translate(-2.58 -7.05)"/></g><g class="cls-1"><path class="cls-2" d="M47.84,49.63a4.54,4.54,0,0,1,3.69,1.81l-1.26.92a3,3,0,0,0-2.46-1.26A2.72,2.72,0,0,0,45.09,54a2.76,2.76,0,0,0,2.79,2.9,2.31,2.31,0,0,0,2.42-1.95H47.5V53.53h4.36v4.65H50.3v-1a3.41,3.41,0,0,1-2.57,1.11A4.22,4.22,0,0,1,43.45,54,4.27,4.27,0,0,1,47.84,49.63Z" transform="translate(-2.58 -7.05)"/><path class="cls-2" d="M53,58.18v-8.4h1.62v8.4Z" transform="translate(-2.58 -7.05)"/></g><g class="cls-1"><path class="cls-2" d="M57.22,55.58A1.6,1.6,0,0,0,59,57c.94,0,1.42-.44,1.42-1s-.4-.88-1-1L58,54.55c-1.5-.39-2.23-1.14-2.23-2.4a2.61,2.61,0,0,1,2.9-2.51,3.05,3.05,0,0,1,3.19,2.69H60.23A1.56,1.56,0,0,0,58.61,51c-.73,0-1.29.39-1.29,1.05s.39.85,1,1l1.41.37c1.57.41,2.24,1.13,2.24,2.38,0,1.43-1.18,2.52-3,2.52a3.08,3.08,0,0,1-3.33-2.74Z" transform="translate(-2.58 -7.05)"/></g><g class="cls-1"><path class="cls-2" d="M62.29,49.78h6.79V51.2H66.49v7H64.87v-7H62.29Z" transform="translate(-2.58 -7.05)"/><path class="cls-2" d="M69.92,58.18v-8.4h1.62v8.4Z" transform="translate(-2.58 -7.05)"/><path class="cls-2" d="M74.35,49.78v3.57l3.3-3.57h2l-3.92,4.15,4,4.25H77.61l-3.26-3.51v3.51H72.73v-8.4Z" transform="translate(-2.58 -7.05)"/><path class="cls-2" d="M86.11,56.91a1.87,1.87,0,0,0,1.84-2V49.78h1.62v8.4H88v-.6a3.21,3.21,0,0,1-2.07.77A3.17,3.17,0,0,1,82.63,55V49.78h1.62v5.11A1.86,1.86,0,0,0,86.11,56.91Z" transform="translate(-2.58 -7.05)"/><path class="cls-2" d="M90.78,58.18v-8.4h1.77L96.8,56V49.78h1.49v8.4H96.51L92.26,52l0,6.18Z" transform="translate(-2.58 -7.05)"/><path class="cls-2" d="M102.81,58.18H99.49v-8.4h3.32a4.2,4.2,0,1,1,0,8.4Zm-1.7-7v5.56h1.53a2.78,2.78,0,1,0,0-5.56Z" transform="translate(-2.58 -7.05)"/><path class="cls-2" d="M110.23,49.78H117V51.2h-2.59v7h-1.62v-7h-2.58Z" transform="translate(-2.58 -7.05)"/></g><g class="cls-1"><path class="cls-2" d="M117.87,58.18v-8.4h3.42a2.51,2.51,0,0,1,2.55,2.51,2.46,2.46,0,0,1-1.53,2.26l2.08,3.63h-1.82l-1.91-3.43h-1.17v3.43Zm1.62-7v2.19H121a1.1,1.1,0,1,0,0-2.19Z" transform="translate(-2.58 -7.05)"/></g><g class="cls-1"><path class="cls-2" d="M133.19,58.18h-1.73l-.83-2H127l-.83,2h-1.68l3.54-8.4h1.63Zm-3.12-3.45-1.26-3.15-1.27,3.15Z" transform="translate(-2.58 -7.05)"/><path class="cls-2" d="M133.73,58.18v-8.4h1.78L139.75,56V49.78h1.5v8.4h-1.78L135.22,52v6.18Z" transform="translate(-2.58 -7.05)"/><path class="cls-2" d="M143.81,55.58a1.6,1.6,0,0,0,1.78,1.4c.93,0,1.41-.44,1.41-1s-.4-.88-1-1l-1.43-.36c-1.5-.39-2.23-1.14-2.23-2.4a2.61,2.61,0,0,1,2.9-2.51,3,3,0,0,1,3.19,2.69h-1.58A1.56,1.56,0,0,0,145.2,51c-.73,0-1.28.39-1.28,1.05s.38.85,1,1l1.42.37c1.57.41,2.24,1.13,2.24,2.38,0,1.43-1.19,2.52-3,2.52a3.08,3.08,0,0,1-3.33-2.74Z" transform="translate(-2.58 -7.05)"/></g><g class="cls-1"><path class="cls-2" d="M149.61,49.78h3.56a2.58,2.58,0,1,1,0,5.16h-1.94v3.24h-1.62Zm1.62,1.42v2.36H153a1.18,1.18,0,0,0,0-2.36Z" transform="translate(-2.58 -7.05)"/></g><g class="cls-1"><path class="cls-2" d="M160.9,49.63A4.36,4.36,0,1,1,156.43,54,4.37,4.37,0,0,1,160.9,49.63Zm0,7.22A2.87,2.87,0,1,0,158.08,54,2.8,2.8,0,0,0,160.9,56.85Z" transform="translate(-2.58 -7.05)"/></g><g class="cls-1"><path class="cls-2" d="M166.39,58.18v-8.4h3.42a2.51,2.51,0,0,1,2.55,2.51,2.46,2.46,0,0,1-1.53,2.26l2.08,3.63h-1.82l-1.91-3.43H168v3.43Zm1.62-7v2.19h1.53a1.1,1.1,0,1,0,0-2.19Z" transform="translate(-2.58 -7.05)"/></g><g class="cls-1"><path class="cls-2" d="M172.83,49.78h6.79V51.2H177v7h-1.62v-7h-2.58Z" transform="translate(-2.58 -7.05)"/><path class="cls-2" d="M180.46,49.78h5.29V51.2h-3.67v2.07h3.55v1.38h-3.55v2.11h3.67v1.42h-5.29Z" transform="translate(-2.58 -7.05)"/></g></g></svg>