<svg id="Layer_1" data-name="Layer 1" xmlns="http://www.w3.org/2000/svg" viewBox="0 0 624.33 293.85"><defs><style>.cls-1{fill:#fff;}</style></defs><path class="cls-1" d="M3.49,218.51V64.94H35.8v86.61l31.34-38.92h35.42l-39.9,46.71,44.57,59.17h-39L35.8,173.35v45.16Z" transform="translate(-0.2 0.17)"/><path class="cls-1" d="M174.76,151.75v-1.17q0-9-6-13.62t-17.38-4.67a61,61,0,0,0-11.5,1.26,123.6,123.6,0,0,0-15.16,4.19l-7-20.25,8-2.72a104.4,104.4,0,0,1,30-4.48q24.33,0,37,11.1t12.65,32.5v64.62H177.1l.19-13.24q-13.81,15.18-33.67,15.18-16.16,0-26.66-9.48a30.7,30.7,0,0,1-10.51-23.8q0-17.23,14.12-26.33t40.65-9.09Zm0,27.05v-8l-7.39-.19q-29.77,0-29.78,15.57a10.86,10.86,0,0,0,4.18,8.85q4.18,3.42,10.81,3.41,9.53,0,15.86-5.55A17.94,17.94,0,0,0,174.76,178.8Z" transform="translate(-0.2 0.17)"/><path class="cls-1" d="M222.64,218.51V112.63h29.2V128q5.83-9.33,12.65-13.43t16.74-4.08q4.66,0,13.43,2.72l-7,27.45c-1.56-.26-3-.46-4.48-.59s-2.79-.19-4.09-.19q-13.43,0-19.26,8.17a21.25,21.25,0,0,0-3.7,8.57,83.49,83.49,0,0,0-1,15v46.91Z" transform="translate(-0.2 0.17)"/><path class="cls-1" d="M358.3,151.75v-1.17q0-9-6-13.62t-17.38-4.67a60.84,60.84,0,0,0-11.49,1.26,123.11,123.11,0,0,0-15.16,4.19l-7-20.25,8-2.72a104.41,104.41,0,0,1,30-4.48q24.33,0,37,11.1t12.65,32.5v64.62H360.64l.19-13.24Q347,220.45,327.16,220.45q-16.16,0-26.66-9.48A30.71,30.71,0,0,1,290,187.17q0-17.23,14.13-26.33t40.64-9.09Zm0,27.05v-8l-7.4-.19q-29.77,0-29.77,15.57a10.86,10.86,0,0,0,4.18,8.85q4.19,3.42,10.8,3.41,9.54,0,15.86-5.55A17.92,17.92,0,0,0,358.3,178.8Z" transform="translate(-0.2 0.17)"/><path class="cls-1" d="M382,256.66l5.26-23,5.25.58q8.18,0,11.2-3.79t3-14.5V112.63h32.31V219.68a74.56,74.56,0,0,1-1.17,15.18q-5.64,24.7-36.2,24.72A59.84,59.84,0,0,1,393,259Q389,258.41,382,256.66Z" transform="translate(-0.2 0.17)"/><rect class="cls-1" x="456.39" y="112.8" width="32.5" height="105.88"/><path class="cls-1" d="M589.71,115.74l-7.59,22.77a43.77,43.77,0,0,0-8-2.14,48.41,48.41,0,0,0-7.59-.58q-13.62,0-22,8.15t-8.37,21.73q0,12.79,8.37,21.14t21.8,8.34a59.36,59.36,0,0,0,17.71-2.92l7.2,21.75q-16.15,6.48-30.75,6.47-25.69,0-41.46-15.18t-15.76-39.7q0-24.72,15.76-39.9t41.46-15.18a83.63,83.63,0,0,1,14.69,1.17A87.41,87.41,0,0,1,589.71,115.74Z" transform="translate(-0.2 0.17)"/><rect class="cls-1" x="462.17" y="32.51" width="105.88" height="32.5" transform="translate(116.2 378.68) rotate(-45)"/><rect class="cls-1" x="401.67" y="33" width="105.88" height="32.5" transform="translate(98.12 336.05) rotate(-45)"/><rect class="cls-1" x="522.67" y="33.5" width="105.88" height="32.5" transform="translate(133.21 421.76) rotate(-45)"/><path class="cls-1" d="M20.17,268.62,26,285.85,31,268.62h4.94L28.52,293.1H24.15l-6.09-17.71L12,293.1H7.64L.2,268.62H5.33l4.9,17.23,5.91-17.23Z" transform="translate(-0.2 0.17)"/><path class="cls-1" d="M37.78,262.28a2.9,2.9,0,0,1,2.93-2.88,2.91,2.91,0,0,1,0,5.81A2.92,2.92,0,0,1,37.78,262.28Zm5.33,30.82H38.26V268.62h4.85Z" transform="translate(-0.2 0.17)"/><path class="cls-1" d="M58.13,272.94c-3.16,0-5.47,2.45-5.47,6.24V293.1H47.81V268.62h4.8v3a6.54,6.54,0,0,1,5.86-3.21h1.68v4.51Z" transform="translate(-0.2 0.17)"/><path class="cls-1" d="M84.63,268.14c7.06,0,12.24,5.42,12.24,12.72v1.58H77a8.2,8.2,0,0,0,8.11,7,8.43,8.43,0,0,0,7.06-3.6l3.5,2.6a12.82,12.82,0,0,1-10.56,5.23,12.75,12.75,0,1,1-.43-25.49ZM77.05,278.6H92a7.59,7.59,0,0,0-14.93,0Z" transform="translate(-0.2 0.17)"/><path class="cls-1" d="M111,272.94c-3.17,0-5.47,2.45-5.47,6.24V293.1h-4.85V268.62h4.8v3a6.54,6.54,0,0,1,5.86-3.21H113v4.51Z" transform="translate(-0.2 0.17)"/><path class="cls-1" d="M134.31,268.62l5.86,17.23,4.94-17.23h4.94l-7.39,24.48h-4.37l-6.09-17.71-6,17.71h-4.37l-7.44-24.48h5.14l4.89,17.23,5.91-17.23Z" transform="translate(-0.2 0.17)"/><path class="cls-1" d="M163.59,268.14c7.06,0,12.24,5.42,12.24,12.72v1.58H155.91a8.2,8.2,0,0,0,8.11,7,8.43,8.43,0,0,0,7.06-3.6l3.5,2.6A12.83,12.83,0,0,1,164,293.63a12.75,12.75,0,1,1-.43-25.49ZM156,278.6h14.93a7.62,7.62,0,0,0-7.44-6.24A7.72,7.72,0,0,0,156,278.6Z" transform="translate(-0.2 0.17)"/><path class="cls-1" d="M179.14,262.28a2.9,2.9,0,0,1,2.93-2.88,2.91,2.91,0,0,1,0,5.81A2.92,2.92,0,0,1,179.14,262.28Zm5.33,30.82h-4.85V268.62h4.85Z" transform="translate(-0.2 0.17)"/><path class="cls-1" d="M192.05,287.82V272.89H187.4v-4.27h4.65v-7.2h4.85v7.2h5.62v4.27H196.9v13.87c0,1.35.91,2.07,2.4,2.07h3.22v4.27h-4.66C194.12,293.1,192.05,290.89,192.05,287.82Z" transform="translate(-0.2 0.17)"/><path class="cls-1" d="M216.77,268.14c7.06,0,12.24,5.42,12.24,12.72v1.58H209.09a8.21,8.21,0,0,0,8.11,7,8.41,8.41,0,0,0,7.06-3.6l3.51,2.6a12.85,12.85,0,0,1-10.57,5.23,12.75,12.75,0,1,1-.43-25.49Zm-7.58,10.46h14.93a7.63,7.63,0,0,0-7.44-6.24A7.71,7.71,0,0,0,209.19,278.6Z" transform="translate(-0.2 0.17)"/><path class="cls-1" d="M243.12,272.94c-3.16,0-5.47,2.45-5.47,6.24V293.1H232.8V268.62h4.8v3a6.54,6.54,0,0,1,5.86-3.21h1.68v4.51Z" transform="translate(-0.2 0.17)"/><path class="cls-1" d="M269.81,293.1H265V278.41c0-3.55-2.3-6-5.76-6a5.78,5.78,0,0,0-6,6.1V293.1h-4.85V268.62h4.85v2.69a9.33,9.33,0,0,1,7.2-3.22,9.09,9.09,0,0,1,9.41,9.36Z" transform="translate(-0.2 0.17)"/><path class="cls-1" d="M301,258.92a17.84,17.84,0,0,1,14.83,7.63l-4,2.74A13.11,13.11,0,0,0,301,263.53c-6.72,0-12.33,5.23-12.33,12.77a12.42,12.42,0,0,0,12.48,12.82c6.24,0,10.18-4.32,10.7-9.08v-.52H299.86v-4.37h16.8v18h-4.85v-4.66a13.88,13.88,0,0,1-11.09,5.24,17,17,0,0,1-17.18-17.38A17.16,17.16,0,0,1,301,258.92Z" transform="translate(-0.2 0.17)"/><path class="cls-1" d="M331.83,272.94c-3.17,0-5.48,2.45-5.48,6.24V293.1h-4.84V268.62h4.8v3a6.53,6.53,0,0,1,5.85-3.21h1.68v4.51Z" transform="translate(-0.2 0.17)"/><path class="cls-1" d="M347.67,268.14c7.05,0,12.24,5.42,12.24,12.72v1.58H340a8.2,8.2,0,0,0,8.11,7,8.43,8.43,0,0,0,7.06-3.6l3.5,2.6a12.85,12.85,0,0,1-10.56,5.23,12.75,12.75,0,1,1-.43-25.49Zm-7.59,10.46H355a7.62,7.62,0,0,0-7.44-6.24A7.72,7.72,0,0,0,340.08,278.6Z" transform="translate(-0.2 0.17)"/><path class="cls-1" d="M385.16,293.1h-4.85V278.41c0-3.55-2.31-6-5.76-6a5.77,5.77,0,0,0-6,6.1V293.1H363.7V268.62h4.85v2.69a9.3,9.3,0,0,1,7.2-3.22,9.1,9.1,0,0,1,9.41,9.36Z" transform="translate(-0.2 0.17)"/><path class="cls-1" d="M389,268.62h18.82v3.65l-13,16.56H408.1v4.27H388.75v-3.5l13.06-16.71H389Z" transform="translate(-0.2 0.17)"/><path class="cls-1" d="M422.26,268.14c7.06,0,12.24,5.42,12.24,12.72v1.58H414.58a8.2,8.2,0,0,0,8.11,7,8.43,8.43,0,0,0,7.06-3.6l3.5,2.6a12.83,12.83,0,0,1-10.56,5.23,12.75,12.75,0,1,1-.43-25.49Zm-7.59,10.46H429.6a7.62,7.62,0,0,0-7.44-6.24A7.72,7.72,0,0,0,414.67,278.6Z" transform="translate(-0.2 0.17)"/><path class="cls-1" d="M459.75,293.1H454.9V278.41c0-3.55-2.3-6-5.76-6a5.78,5.78,0,0,0-6,6.1V293.1h-4.85V268.62h4.85v2.69a9.32,9.32,0,0,1,7.2-3.22,9.09,9.09,0,0,1,9.41,9.36Z" transform="translate(-0.2 0.17)"/></svg>